<?xml version="1.0" standalone="no"?>
<!DOCTYPE svg PUBLIC "-//W3C//DTD SVG 20010904//EN"
 "http://www.w3.org/TR/2001/REC-SVG-20010904/DTD/svg10.dtd">
<svg version="1.0" xmlns="http://www.w3.org/2000/svg"
 width="225.000000pt" height="225.000000pt" viewBox="0 0 225.000000 225.000000"
 preserveAspectRatio="xMidYMid meet">

<g transform="translate(0.000000,225.000000) scale(0.100000,-0.100000)"
fill="#000000" stroke="none">
<path d="M956 2004 c-3 -9 -6 -119 -6 -245 0 -206 -2 -234 -19 -267 -11 -21
-22 -59 -26 -86 -6 -35 -13 -50 -29 -56 -11 -4 -22 -4 -24 1 -5 12 -52 11 -52
-1 0 -5 15 -13 33 -18 29 -8 25 -10 -48 -20 -44 -7 -125 -17 -180 -23 -55 -6
-103 -13 -107 -15 -18 -11 6 -26 33 -20 16 3 29 1 29 -4 0 -6 -8 -10 -17 -11
-10 0 -28 -2 -39 -3 -12 -1 -31 1 -43 6 -21 7 -21 8 -19 314 l3 307 93 25 c51
14 91 27 88 29 -7 7 -171 -38 -184 -51 -11 -10 -13 -168 -13 -812 0 -751 1
-799 17 -811 20 -15 64 -18 49 -4 -6 5 -19 11 -30 13 -18 3 -20 12 -23 116
l-3 114 68 -7 c37 -4 76 -12 87 -17 13 -7 22 -6 33 5 16 16 5 19 -124 33 l-63
7 0 311 c0 171 3 321 6 333 3 11 14 23 25 26 11 3 16 1 13 -5 -4 -6 4 -8 22
-5 16 3 70 8 119 12 50 3 117 8 150 10 60 5 60 5 25 -9 l-35 -14 49 -1 c39 -1
47 2 42 14 -3 8 -1 15 4 15 6 0 10 -4 10 -10 0 -5 5 -10 10 -10 7 0 7 8 -1 23
-11 22 -11 22 7 3 26 -27 30 -105 8 -148 -15 -29 -75 -107 -111 -146 -7 -7
-13 -18 -13 -23 0 -5 -10 -9 -22 -9 -22 -1 -22 -2 -5 -14 17 -13 17 -14 0 -20
-13 -5 -14 -9 -5 -15 15 -9 -2 -69 -25 -87 -7 -7 -13 -16 -11 -20 5 -18 -14
-54 -28 -54 -8 0 -13 -4 -10 -8 3 -5 0 -25 -6 -44 -6 -20 -8 -47 -4 -61 5 -23
8 -24 36 -14 27 10 33 8 66 -23 20 -19 59 -73 87 -119 28 -46 58 -86 65 -88
25 -10 62 15 62 41 0 26 -12 38 -122 131 -67 56 -68 57 -68 106 0 57 29 152
69 224 15 28 33 73 40 100 7 28 24 68 39 90 14 22 28 58 32 80 l5 40 20 -21
c40 -42 71 -56 109 -48 56 10 55 26 -1 18 -38 -5 -52 -3 -62 10 -7 9 -10 16
-5 16 4 0 -13 13 -39 30 -43 27 -58 42 -39 39 19 -3 25 2 12 11 -13 8 -12 10
4 10 18 0 18 1 2 19 -40 44 -23 161 23 161 28 0 55 -37 55 -75 0 -34 1 -35 41
-35 31 0 37 -3 25 -11 -13 -9 -13 -10 0 -6 8 2 13 11 11 18 -15 52 -12 66 19
92 40 34 64 34 89 -1 28 -40 35 -78 21 -113 -9 -21 -10 -33 -2 -41 6 -6 7 -21
2 -38 -6 -21 0 -44 31 -106 21 -43 41 -95 45 -114 4 -19 14 -44 24 -55 57 -65
84 -188 75 -345 -5 -82 -4 -90 17 -109 43 -41 114 -20 161 48 31 44 32 50 31
141 0 82 -5 107 -33 182 -18 48 -39 92 -47 99 -11 9 -14 49 -14 204 0 105 -3
246 -6 311 l-7 120 -56 -18 c-31 -10 -68 -20 -83 -23 -18 -3 -28 -12 -28 -22
0 -13 -4 -12 -17 7 -77 117 -233 162 -341 99 -18 -10 -34 -19 -35 -19 -3 0 12
412 16 443 4 29 -17 38 -27 11z m-89 -771 c-8 -8 -251 -32 -322 -32 -44 0 -47
2 -25 10 14 6 86 13 160 16 74 3 137 7 139 9 8 7 55 4 48 -3z m487 -139 c3 -8
-1 -14 -10 -14 -8 0 -12 5 -9 10 3 6 1 10 -4 10 -6 0 -11 4 -11 10 0 14 27 1
34 -16z"/>
<path d="M725 1950 c-13 -5 -14 -9 -5 -9 8 0 24 4 35 9 13 5 14 9 5 9 -8 0
-24 -4 -35 -9z"/>
<path d="M655 1930 c-13 -5 -14 -9 -5 -9 8 0 24 4 35 9 13 5 14 9 5 9 -8 0
-24 -4 -35 -9z"/>
<path d="M775 1835 c-27 -7 -93 -23 -145 -35 -52 -13 -102 -27 -110 -32 -12
-7 -10 -8 5 -4 51 12 197 46 263 61 69 17 91 26 55 24 -10 0 -40 -7 -68 -14z"/>
<path d="M810 1800 c-18 -12 -2 -12 25 0 13 6 15 9 5 9 -8 0 -22 -4 -30 -9z"/>
<path d="M795 1753 c-89 -21 -226 -53 -252 -58 -18 -4 -33 -10 -33 -14 0 -5
46 2 103 14 56 13 135 28 175 35 39 7 72 17 72 22 0 8 -31 9 -65 1z"/>
<path d="M815 1710 c-16 -7 -17 -9 -3 -9 9 -1 20 4 23 9 7 11 7 11 -20 0z"/>
<path d="M691 1644 c-175 -35 -197 -41 -188 -50 5 -5 345 54 356 62 1 2 1 7 0
12 -2 5 -78 -6 -168 -24z"/>
<path d="M839 1586 c-2 -2 -74 -16 -159 -30 -174 -30 -183 -32 -176 -45 3 -4
52 0 108 10 57 10 136 23 176 29 50 8 72 16 72 26 0 13 -12 19 -21 10z"/>
<path d="M805 1530 c-8 -13 15 -13 35 0 12 8 11 10 -7 10 -12 0 -25 -4 -28
-10z"/>
<path d="M710 1474 c-182 -27 -214 -34 -203 -45 7 -7 342 36 351 46 18 18 -25
18 -148 -1z"/>
<path d="M800 1440 c0 -12 8 -12 35 0 18 8 17 9 -7 9 -16 1 -28 -3 -28 -9z"/>
<path d="M671 1384 c-90 -13 -166 -26 -169 -29 -17 -17 27 -16 179 3 176 23
193 27 184 43 -7 11 9 12 -194 -17z"/>
<path d="M1156 1297 c-33 -49 19 -103 55 -58 18 21 16 43 -4 69 -15 19 -35 14
-51 -11z"/>
<path d="M967 1303 c-12 -11 -8 -48 8 -71 13 -18 19 -20 34 -10 11 6 18 16 16
22 -2 6 -6 23 -9 39 -6 26 -33 37 -49 20z"/>
<path d="M688 1163 c6 -2 18 -2 25 0 6 3 1 5 -13 5 -14 0 -19 -2 -12 -5z"/>
<path d="M508 1143 c7 -3 16 -2 19 1 4 3 -2 6 -13 5 -11 0 -14 -3 -6 -6z"/>
<path d="M647 1112 c-31 -34 -14 -92 26 -92 31 0 47 18 47 55 0 53 -41 73 -73
37z m47 2 c9 -3 16 -13 16 -20 0 -11 -4 -12 -19 -5 -23 13 -35 3 -19 -16 6 -7
9 -15 6 -18 -2 -2 -12 4 -21 15 -15 17 -15 21 -1 35 18 17 17 17 38 9z m-1
-56 c19 16 20 16 8 -5 -10 -19 -51 -34 -51 -19 0 2 -3 13 -6 23 -7 17 -6 17
12 1 17 -17 19 -17 37 0z"/>
<path d="M1115 1115 c-24 -11 -26 -14 -9 -15 11 0 29 7 40 15 24 18 9 18 -31
0z"/>
<path d="M1048 1093 c6 -2 18 -2 25 0 6 3 1 5 -13 5 -14 0 -19 -2 -12 -5z"/>
<path d="M620 900 c0 -5 7 -10 16 -10 8 0 12 5 9 10 -3 6 -10 10 -16 10 -5 0
-9 -4 -9 -10z"/>
<path d="M660 900 c0 -5 5 -10 10 -10 6 0 10 5 10 10 0 6 -4 10 -10 10 -5 0
-10 -4 -10 -10z"/>
<path d="M700 900 c0 -5 5 -10 10 -10 6 0 10 5 10 10 0 6 -4 10 -10 10 -5 0
-10 -4 -10 -10z"/>
<path d="M585 870 c-3 -5 -1 -10 4 -10 6 0 11 5 11 10 0 6 -2 10 -4 10 -3 0
-8 -4 -11 -10z"/>
<path d="M620 860 c0 -5 4 -10 9 -10 6 0 13 5 16 10 3 6 -1 10 -9 10 -9 0 -16
-4 -16 -10z"/>
<path d="M660 860 c0 -5 5 -10 10 -10 6 0 10 5 10 10 0 6 -4 10 -10 10 -5 0
-10 -4 -10 -10z"/>
<path d="M700 860 c0 -5 5 -10 10 -10 6 0 10 5 10 10 0 6 -4 10 -10 10 -5 0
-10 -4 -10 -10z"/>
<path d="M580 830 c0 -5 5 -10 10 -10 6 0 10 5 10 10 0 6 -4 10 -10 10 -5 0
-10 -4 -10 -10z"/>
<path d="M620 830 c0 -5 5 -10 10 -10 6 0 10 5 10 10 0 6 -4 10 -10 10 -5 0
-10 -4 -10 -10z"/>
<path d="M660 830 c0 -5 5 -10 10 -10 6 0 10 5 10 10 0 6 -4 10 -10 10 -5 0
-10 -4 -10 -10z"/>
<path d="M700 830 c0 -5 5 -10 10 -10 6 0 10 5 10 10 0 6 -4 10 -10 10 -5 0
-10 -4 -10 -10z"/>
<path d="M580 800 c0 -5 5 -10 11 -10 5 0 7 5 4 10 -3 6 -8 10 -11 10 -2 0 -4
-4 -4 -10z"/>
<path d="M625 790 c4 -6 11 -8 16 -5 14 9 11 15 -7 15 -8 0 -12 -5 -9 -10z"/>
<path d="M660 789 c0 -5 5 -7 10 -4 6 3 10 8 10 11 0 2 -4 4 -10 4 -5 0 -10
-5 -10 -11z"/>
<path d="M700 790 c0 -5 5 -10 10 -10 6 0 10 5 10 10 0 6 -4 10 -10 10 -5 0
-10 -4 -10 -10z"/>
<path d="M620 760 c0 -5 5 -10 10 -10 6 0 10 5 10 10 0 6 -4 10 -10 10 -5 0
-10 -4 -10 -10z"/>
<path d="M660 760 c0 -5 5 -10 10 -10 6 0 10 5 10 10 0 6 -4 10 -10 10 -5 0
-10 -4 -10 -10z"/>
<path d="M580 730 c0 -5 5 -10 10 -10 6 0 10 5 10 10 0 6 -4 10 -10 10 -5 0
-10 -4 -10 -10z"/>
<path d="M628 723 c7 -3 16 -2 19 1 4 3 -2 6 -13 5 -11 0 -14 -3 -6 -6z"/>
<path d="M660 720 c0 -5 5 -10 10 -10 6 0 10 5 10 10 0 6 -4 10 -10 10 -5 0
-10 -4 -10 -10z"/>
<path d="M625 690 c3 -5 8 -10 11 -10 2 0 4 5 4 10 0 6 -5 10 -11 10 -5 0 -7
-4 -4 -10z"/>
<path d="M660 690 c0 -5 5 -10 11 -10 5 0 7 5 4 10 -3 6 -8 10 -11 10 -2 0 -4
-4 -4 -10z"/>
<path d="M1305 308 c-58 -57 -125 -88 -204 -95 -83 -7 -131 7 -167 50 -28 33
-28 32 -5 -15 21 -42 -1 -102 -45 -123 -36 -17 -31 -17 -249 24 -109 21 -170
23 -85 3 102 -23 205 -54 234 -69 46 -24 119 -23 148 2 50 45 74 50 230 50
l149 0 25 -32 c28 -36 73 -49 127 -39 19 4 56 29 92 63 l60 55 -50 -33 c-40
-27 -62 -34 -111 -37 -62 -4 -62 -4 -78 29 -10 21 -17 67 -18 122 -2 48 -5 86
-8 86 -3 -1 -23 -20 -45 -41z"/>
</g>
</svg>
